<svg width="43" height="69" viewBox="0 0 43 69" fill="none" xmlns="http://www.w3.org/2000/svg">
<path d="M7.70005 13.8C3.88928 13.8 0.800049 10.7108 0.800049 6.9C0.800049 3.08924 3.88928 0 7.70005 0C11.5108 0 14.6 3.08924 14.6 6.9C14.6 10.7108 11.5108 13.8 7.70005 13.8ZM7.70005 41.4C3.88928 41.4 0.800049 38.3108 0.800049 34.5C0.800049 30.6892 3.88928 27.6 7.70005 27.6C11.5108 27.6 14.6 30.6892 14.6 34.5C14.6 38.3108 11.5108 41.4 7.70005 41.4ZM7.70005 69C3.88928 69 0.800049 65.9108 0.800049 62.1C0.800049 58.2892 3.88928 55.2 7.70005 55.2C11.5108 55.2 14.6 58.2892 14.6 62.1C14.6 65.9108 11.5108 69 7.70005 69ZM35.3 13.8C31.4893 13.8 28.4 10.7108 28.4 6.9C28.4 3.08924 31.4893 0 35.3 0C39.1108 0 42.2001 3.08924 42.2001 6.9C42.2001 10.7108 39.1108 13.8 35.3 13.8ZM35.3 41.4C31.4893 41.4 28.4 38.3108 28.4 34.5C28.4 30.6892 31.4893 27.6 35.3 27.6C39.1108 27.6 42.2001 30.6892 42.2001 34.5C42.2001 38.3108 39.1108 41.4 35.3 41.4ZM35.3 69C31.4893 69 28.4 65.9108 28.4 62.1C28.4 58.2892 31.4893 55.2 35.3 55.2C39.1108 55.2 42.2001 58.2892 42.2001 62.1C42.2001 65.9108 39.1108 69 35.3 69Z" fill="black"/>
</svg>
